<?xml version="1.0" encoding="UTF-8"?>
<svg version="1.1" xmlns="http://www.w3.org/2000/svg" width="512" height="512">
<path d="M0 0 C0.93491323 -0.00453111 1.86982646 -0.00906223 2.8330704 -0.01373065 C5.94960646 -0.02633854 9.06596697 -0.02475661 12.18252563 -0.02310181 C14.42361169 -0.02908924 16.66469568 -0.03589528 18.90577698 -0.04345703 C24.98223824 -0.06110064 31.05864314 -0.06581168 37.13512754 -0.0670886 C40.93370491 -0.06851149 44.73226801 -0.07278367 48.53084183 -0.07808304 C61.10522144 -0.09562298 73.6795691 -0.10492397 86.25395839 -0.10342209 C87.26926568 -0.10330222 87.26926568 -0.10330222 88.30508423 -0.10317993 C88.98278789 -0.10309817 89.66049156 -0.10301641 90.3587317 -0.10293217 C101.3413881 -0.10211929 112.32390735 -0.12126119 123.30652408 -0.14945666 C134.60017644 -0.17822054 145.89376404 -0.19162924 157.18746054 -0.19026911 C163.52133112 -0.18975966 169.85504636 -0.19543426 176.18888474 -0.21662521 C182.14631045 -0.23601355 188.10343269 -0.2361277 194.06086922 -0.22159195 C196.24330782 -0.21950364 198.42576545 -0.224206 200.60817146 -0.23631287 C203.59549907 -0.25180771 206.58178572 -0.24242891 209.5690918 -0.22705078 C210.85375448 -0.24248147 210.85375448 -0.24248147 212.16436994 -0.25822389 C222.52314187 -0.1409866 229.93566435 3.97375246 237.28262329 11.04476929 C246.74217826 20.92089182 246.8533835 32.44141269 246.79920959 45.4229126 C246.80338719 47.0564155 246.80886703 48.6899155 246.81552941 50.32341015 C246.82994695 54.79273082 246.82575086 59.26186649 246.81836259 63.73119712 C246.81362407 68.55885266 246.82614683 73.38646857 246.83638 78.21411133 C246.85355996 87.66437069 246.85440967 97.11456354 246.8491671 106.56483446 C246.84512265 114.24756663 246.84657224 121.93027917 246.85191536 129.61301041 C246.85266378 130.70723388 246.8534122 131.80145736 246.85418331 132.92883912 C246.85571481 135.15188701 246.85725316 137.3749349 246.85879827 139.59798278 C246.87252043 160.43672008 246.86708763 181.27541982 246.85561306 202.11415626 C246.84568118 221.16877108 246.85862111 240.2232888 246.88254725 259.27788864 C246.90694335 278.8546081 246.91654485 298.43128235 246.90989453 318.00801671 C246.90640342 328.99428387 246.90862722 339.98047636 246.92614555 350.96673203 C246.94087389 360.31912403 246.94149466 369.67138878 246.92407464 379.0237783 C246.9155675 383.79289167 246.91340817 388.56177775 246.9287262 393.33087921 C246.94259168 397.7019557 246.93778631 402.07261057 246.91848696 406.44366278 C246.91473234 408.0196088 246.91763333 409.59558874 246.92809861 411.17150448 C247.01055522 424.5458867 245.39324885 435.3069598 235.78262329 445.13851929 C227.01649735 453.0092584 218.9239591 454.56616444 207.36813354 454.53485107 C206.14499695 454.53938219 204.92186035 454.5439133 203.661659 454.54858172 C200.27397863 454.55904336 196.88651076 454.56055304 193.49882936 454.55819297 C189.84225225 454.55778442 186.18570667 454.56882762 182.52914429 454.57830811 C175.36772418 454.59491123 168.206337 454.60041735 161.04489926 454.60153286 C155.22227783 454.60248373 149.39966725 454.60659594 143.57704926 454.61293411 C127.06189075 454.63054516 110.54675822 454.63977327 94.03159025 454.63827316 C93.14151123 454.63819325 92.25143221 454.63811334 91.3343811 454.63803101 C89.99762863 454.63790836 89.99762863 454.63790836 88.63387105 454.63778324 C74.1947432 454.63697053 59.75571972 454.65610484 45.31662205 454.68430774 C30.4838336 454.71305052 15.65109603 454.72684725 0.81827903 454.72512019 C-7.50645368 454.72445673 -15.83107701 454.72992928 -24.15578461 454.75147629 C-31.24439603 454.76970652 -38.33284849 454.7740204 -45.42147323 454.76045744 C-49.0359407 454.75393683 -52.65010335 454.75377731 -56.26454163 454.77116394 C-60.18888136 454.78984656 -64.11277836 454.77731624 -68.03713989 454.76190186 C-69.17120325 454.77218898 -70.3052666 454.78247611 -71.47369552 454.79307497 C-82.80763551 454.69484456 -90.32973936 451.3145611 -98.45956421 443.49008179 C-107.22251247 434.34124222 -108.0357796 423.97648966 -107.96942139 411.80737305 C-107.97288403 410.46673082 -107.97765265 409.12609146 -107.98360312 407.78545797 C-107.99605993 404.12562876 -107.98996718 400.46603598 -107.98064446 396.80620623 C-107.97383222 392.84972612 -107.98434604 388.89328551 -107.99258423 384.93681335 C-108.00590136 377.19505052 -108.00305263 369.45337511 -107.99434631 361.7116089 C-107.98756123 355.41665304 -107.98665661 349.12172162 -107.98991776 342.82676315 C-107.99037745 341.92959032 -107.99083715 341.0324175 -107.99131078 340.10805761 C-107.99227 338.28523672 -107.99324264 336.46241583 -107.99422856 334.63959496 C-108.00277679 317.55924547 -107.99295773 300.47894433 -107.97682746 283.39860277 C-107.96342938 268.75849863 -107.96574926 254.11846588 -107.97958374 239.47836304 C-107.99565748 222.46072826 -108.00194805 205.44313586 -107.99274695 188.42549455 C-107.99179135 186.60890286 -107.99084823 184.79231116 -107.98991776 182.97571945 C-107.98945493 182.08202204 -107.9889921 181.18832462 -107.98851525 180.26754547 C-107.9859304 173.9847561 -107.99028555 167.70199372 -107.99735641 161.41920853 C-108.00579177 153.75581413 -108.00344881 146.09251186 -107.98751418 138.42912795 C-107.97965806 134.5228063 -107.97649411 130.61663795 -107.98646164 126.71031761 C-107.99546488 123.12756314 -107.99038419 119.54510266 -107.97452898 115.96237449 C-107.9696418 114.06693008 -107.97932722 112.17146491 -107.98970068 110.27604258 C-107.91939234 99.94240097 -106.09049152 90.41882041 -101.46347046 81.14242554 C-100.94526733 80.06734741 -100.42706421 78.99226929 -99.89315796 77.88461304 C-94.25589956 68.17652401 -84.82143659 60.31317846 -76.94003296 52.38070679 C-76.39935558 51.83595388 -75.85867821 51.29120098 -75.30161667 50.72994041 C-72.44539014 47.85305479 -69.58604212 44.97931324 -66.72421265 42.10800171 C-63.79885176 39.17154641 -60.88537872 36.22357956 -57.97432899 33.27294636 C-55.70401067 30.97630619 -53.42468135 28.68876544 -51.14295578 26.40346336 C-50.06566112 25.32135249 -48.99169383 24.23591682 -47.92140579 23.14687538 C-34.44469176 9.44856991 -19.65816138 -0.07072262 0 0 Z " fill="#F5F6F6" transform="translate(186.58847045898438,28.732574462890625)"/>
<path d="M0 0 C0.93491323 -0.00453111 1.86982646 -0.00906223 2.8330704 -0.01373065 C5.94960646 -0.02633854 9.06596697 -0.02475661 12.18252563 -0.02310181 C14.42361169 -0.02908924 16.66469568 -0.03589528 18.90577698 -0.04345703 C24.98223824 -0.06110064 31.05864314 -0.06581168 37.13512754 -0.0670886 C40.93370491 -0.06851149 44.73226801 -0.07278367 48.53084183 -0.07808304 C61.10522144 -0.09562298 73.6795691 -0.10492397 86.25395839 -0.10342209 C87.26926568 -0.10330222 87.26926568 -0.10330222 88.30508423 -0.10317993 C88.98278789 -0.10309817 89.66049156 -0.10301641 90.3587317 -0.10293217 C101.3413881 -0.10211929 112.32390735 -0.12126119 123.30652408 -0.14945666 C134.60017644 -0.17822054 145.89376404 -0.19162924 157.18746054 -0.19026911 C163.52133112 -0.18975966 169.85504636 -0.19543426 176.18888474 -0.21662521 C182.14631045 -0.23601355 188.10343269 -0.2361277 194.06086922 -0.22159195 C196.24330782 -0.21950364 198.42576545 -0.224206 200.60817146 -0.23631287 C203.59549907 -0.25180771 206.58178572 -0.24242891 209.5690918 -0.22705078 C210.85375448 -0.24248147 210.85375448 -0.24248147 212.16436994 -0.25822389 C222.52314187 -0.1409866 229.93566435 3.97375246 237.28262329 11.04476929 C246.74217826 20.92089182 246.8533835 32.44141269 246.79920959 45.4229126 C246.80338719 47.0564155 246.80886703 48.6899155 246.81552941 50.32341015 C246.82994695 54.79273082 246.82575086 59.26186649 246.81836259 63.73119712 C246.81362407 68.55885266 246.82614683 73.38646857 246.83638 78.21411133 C246.85355996 87.66437069 246.85440967 97.11456354 246.8491671 106.56483446 C246.84512265 114.24756663 246.84657224 121.93027917 246.85191536 129.61301041 C246.85266378 130.70723388 246.8534122 131.80145736 246.85418331 132.92883912 C246.85571481 135.15188701 246.85725316 137.3749349 246.85879827 139.59798278 C246.87252043 160.43672008 246.86708763 181.27541982 246.85561306 202.11415626 C246.84568118 221.16877108 246.85862111 240.2232888 246.88254725 259.27788864 C246.90694335 278.8546081 246.91654485 298.43128235 246.90989453 318.00801671 C246.90640342 328.99428387 246.90862722 339.98047636 246.92614555 350.96673203 C246.94087389 360.31912403 246.94149466 369.67138878 246.92407464 379.0237783 C246.9155675 383.79289167 246.91340817 388.56177775 246.9287262 393.33087921 C246.94259168 397.7019557 246.93778631 402.07261057 246.91848696 406.44366278 C246.91473234 408.0196088 246.91763333 409.59558874 246.92809861 411.17150448 C247.01055522 424.5458867 245.39324885 435.3069598 235.78262329 445.13851929 C227.01649735 453.0092584 218.9239591 454.56616444 207.36813354 454.53485107 C206.14499695 454.53938219 204.92186035 454.5439133 203.661659 454.54858172 C200.27397863 454.55904336 196.88651076 454.56055304 193.49882936 454.55819297 C189.84225225 454.55778442 186.18570667 454.56882762 182.52914429 454.57830811 C175.36772418 454.59491123 168.206337 454.60041735 161.04489926 454.60153286 C155.22227783 454.60248373 149.39966725 454.60659594 143.57704926 454.61293411 C127.06189075 454.63054516 110.54675822 454.63977327 94.03159025 454.63827316 C93.14151123 454.63819325 92.25143221 454.63811334 91.3343811 454.63803101 C89.99762863 454.63790836 89.99762863 454.63790836 88.63387105 454.63778324 C74.1947432 454.63697053 59.75571972 454.65610484 45.31662205 454.68430774 C30.4838336 454.71305052 15.65109603 454.72684725 0.81827903 454.72512019 C-7.50645368 454.72445673 -15.83107701 454.72992928 -24.15578461 454.75147629 C-31.24439603 454.76970652 -38.33284849 454.7740204 -45.42147323 454.76045744 C-49.0359407 454.75393683 -52.65010335 454.75377731 -56.26454163 454.77116394 C-60.18888136 454.78984656 -64.11277836 454.77731624 -68.03713989 454.76190186 C-69.17120325 454.77218898 -70.3052666 454.78247611 -71.47369552 454.79307497 C-82.80763551 454.69484456 -90.32973936 451.3145611 -98.45956421 443.49008179 C-107.22251247 434.34124222 -108.0357796 423.97648966 -107.96942139 411.80737305 C-107.97288403 410.46673082 -107.97765265 409.12609146 -107.98360312 407.78545797 C-107.99605993 404.12562876 -107.98996718 400.46603598 -107.98064446 396.80620623 C-107.97383222 392.84972612 -107.98434604 388.89328551 -107.99258423 384.93681335 C-108.00590136 377.19505052 -108.00305263 369.45337511 -107.99434631 361.7116089 C-107.98756123 355.41665304 -107.98665661 349.12172162 -107.98991776 342.82676315 C-107.99037745 341.92959032 -107.99083715 341.0324175 -107.99131078 340.10805761 C-107.99227 338.28523672 -107.99324264 336.46241583 -107.99422856 334.63959496 C-108.00277679 317.55924547 -107.99295773 300.47894433 -107.97682746 283.39860277 C-107.96342938 268.75849863 -107.96574926 254.11846588 -107.97958374 239.47836304 C-107.99565748 222.46072826 -108.00194805 205.44313586 -107.99274695 188.42549455 C-107.99179135 186.60890286 -107.99084823 184.79231116 -107.98991776 182.97571945 C-107.98945493 182.08202204 -107.9889921 181.18832462 -107.98851525 180.26754547 C-107.9859304 173.9847561 -107.99028555 167.70199372 -107.99735641 161.41920853 C-108.00579177 153.75581413 -108.00344881 146.09251186 -107.98751418 138.42912795 C-107.97965806 134.5228063 -107.97649411 130.61663795 -107.98646164 126.71031761 C-107.99546488 123.12756314 -107.99038419 119.54510266 -107.97452898 115.96237449 C-107.9696418 114.06693008 -107.97932722 112.17146491 -107.98970068 110.27604258 C-107.91939234 99.94240097 -106.09049152 90.41882041 -101.46347046 81.14242554 C-100.94526733 80.06734741 -100.42706421 78.99226929 -99.89315796 77.88461304 C-94.25589956 68.17652401 -84.82143659 60.31317846 -76.94003296 52.38070679 C-76.39935558 51.83595388 -75.85867821 51.29120098 -75.30161667 50.72994041 C-72.44539014 47.85305479 -69.58604212 44.97931324 -66.72421265 42.10800171 C-63.79885176 39.17154641 -60.88537872 36.22357956 -57.97432899 33.27294636 C-55.70401067 30.97630619 -53.42468135 28.68876544 -51.14295578 26.40346336 C-50.06566112 25.32135249 -48.99169383 24.23591682 -47.92140579 23.14687538 C-34.44469176 9.44856991 -19.65816138 -0.07072262 0 0 Z M11.41152954 18.26742554 C11.41010452 19.15310715 11.4086795 20.03878876 11.4072113 20.9513092 C11.38928694 29.35043681 11.34739622 37.74904402 11.27943897 46.14792156 C11.24533406 50.4645992 11.22008494 54.78092913 11.2159729 59.0977478 C11.21165416 63.27375261 11.1829001 67.44897526 11.13809776 71.62473488 C11.12523579 73.20765416 11.12077439 74.79066759 11.12537575 76.37363243 C11.1510415 87.89788345 10.25037822 99.18859222 2.22402954 108.26742554 C-6.16957944 115.53019613 -14.28221345 117.00867798 -25.14706421 116.86117554 C-26.41317032 116.86121582 -27.67927643 116.8612561 -28.98374939 116.86129761 C-31.64283376 116.85596202 -34.29966694 116.84118306 -36.95834351 116.80941772 C-40.36367135 116.76945751 -43.76789688 116.76541248 -47.17341518 116.77288055 C-50.43555818 116.77668304 -53.69749098 116.7558958 -56.95956421 116.73617554 C-58.18138901 116.73597412 -59.40321381 116.73577271 -60.6620636 116.73556519 C-61.7907637 116.71965332 -62.91946381 116.70374146 -64.08236694 116.68734741 C-65.57267677 116.67471863 -65.57267677 116.67471863 -67.09309387 116.66183472 C-69.58847046 116.26742554 -69.58847046 116.26742554 -71.40525818 114.98727417 C-73.07290739 112.56327616 -73.00145648 110.17810923 -73.08456421 107.30258179 C-72.36473877 104.34959712 -70.90243783 103.19132734 -68.58847046 101.26742554 C-66.18043518 100.77536011 -66.18043518 100.77536011 -63.47201538 100.78500366 C-61.94474068 100.77479187 -61.94474068 100.77479187 -60.38661194 100.76437378 C-59.29177994 100.77569336 -58.19694794 100.78701294 -57.06893921 100.79867554 C-55.37103996 100.7881012 -55.37103996 100.7881012 -53.63883972 100.77731323 C-48.79698034 100.74779847 -43.95552136 100.76443754 -39.11361694 100.77670288 C-35.57764722 100.77908706 -32.04232814 100.75814099 -28.50643921 100.73617554 C-27.4176799 100.74749512 -26.32892059 100.7588147 -25.20716858 100.77047729 C-18.80960814 100.72809502 -14.66620377 100.31512003 -9.58847046 96.26742554 C-6.79726987 91.74026121 -6.21971823 88.34700956 -6.24789429 83.06869507 C-6.24745621 82.3753154 -6.24701813 81.68193573 -6.24656677 80.96754456 C-6.24864283 78.69481416 -6.27191643 76.42283821 -6.29550171 74.15023804 C-6.30110191 72.56698001 -6.30537 70.98371676 -6.30836487 69.40045166 C-6.31978036 65.24766509 -6.34921876 61.09519683 -6.38247681 56.9425354 C-6.41324908 52.69931341 -6.42688545 48.45603962 -6.44198608 44.21273804 C-6.47409198 35.89748833 -6.52524797 27.58249661 -6.58847046 19.26742554 C-20.79784621 20.53559746 -29.34117567 30.50117851 -38.77597046 40.26742554 C-41.01513423 42.563346 -43.25989043 44.8537328 -45.50643921 47.14242554 C-46.04377182 47.69130432 -46.58110443 48.24018311 -47.13471985 48.80569458 C-50.50191569 52.22604549 -53.96999445 55.44860007 -57.62826538 58.55844116 C-61.80429653 62.19927041 -65.71266176 66.12363427 -69.65097046 70.01742554 C-70.51013062 70.84758179 -71.36929077 71.67773804 -72.25448608 72.53305054 C-83.2973772 83.466272 -89.87788379 94.13863337 -89.99436277 109.84577662 C-89.98835273 111.07088039 -89.98234268 112.29598415 -89.97615051 113.55821228 C-89.98032921 114.8925933 -89.98580966 116.22697076 -89.99247032 117.5613417 C-90.00687299 121.20834256 -90.0026966 124.85511643 -89.99530351 128.50212944 C-89.99056137 132.44287773 -90.00309077 136.38357766 -90.01332092 140.3243103 C-90.03049255 148.03611989 -90.03135251 155.74784794 -90.02610802 163.45967168 C-90.02206281 169.72798977 -90.02351404 175.99628381 -90.02885628 182.26460075 C-90.0296047 183.15751324 -90.03035312 184.05042573 -90.03112422 184.97039617 C-90.03265573 186.78444752 -90.03419408 188.59849887 -90.03573919 190.4125502 C-90.04945777 207.41265299 -90.04403057 224.41270972 -90.03255398 241.41281145 C-90.02261751 256.9621099 -90.03557056 272.51128942 -90.05948817 288.06056953 C-90.08387396 304.03476077 -90.09348862 320.0088966 -90.08683544 335.98310608 C-90.08334268 344.9482357 -90.08557933 353.91327382 -90.10308647 362.87838936 C-90.11780173 370.50827121 -90.11845252 378.13799708 -90.10101556 385.76787586 C-90.09249847 389.65956429 -90.09037324 393.55097398 -90.10566711 397.44264793 C-90.12204808 401.66319913 -90.10737856 405.88307672 -90.0896759 410.10362244 C-90.09928091 411.33095693 -90.10888592 412.55829142 -90.11878198 413.82281786 C-90.05302717 421.43065943 -89.36338028 427.4438072 -83.77206421 433.10726929 C-83.19585327 433.46949585 -82.61964233 433.83172241 -82.02597046 434.20492554 C-81.4471814 434.58519897 -80.86839233 434.96547241 -80.27206421 435.35726929 C-77.01807306 437.11638747 -74.33789863 437.39479041 -70.71542931 437.40443993 C-69.70482173 437.40951447 -68.69421416 437.41458901 -67.65298212 437.41981733 C-66.53948471 437.42031509 -65.42598731 437.42081284 -64.27874756 437.42132568 C-63.09830419 437.42570794 -61.91786083 437.43009019 -60.70164645 437.43460524 C-57.41933945 437.44567471 -54.13705938 437.4522192 -50.854738 437.45678639 C-47.31674342 437.46274252 -43.77876642 437.47435239 -40.24078369 437.4850769 C-31.69316612 437.50960143 -23.14554273 437.52422852 -14.59790081 437.53713697 C-12.18354421 437.54084899 -9.76918819 437.54482222 -7.35483217 437.54888964 C7.63861551 437.57412721 22.6320641 437.59617992 37.62552834 437.60861778 C41.09862903 437.61154747 44.5717297 437.61450914 48.04483032 437.61752319 C49.3396618 437.61864227 49.3396618 437.61864227 50.66065149 437.61978395 C64.64153964 437.63243516 78.62230055 437.66565495 92.60312922 437.70732503 C106.95781603 437.74975854 121.31243773 437.77331448 135.66718709 437.77853835 C143.72649065 437.78195096 151.78559539 437.79368824 159.84483719 437.82664108 C166.70921913 437.85466234 173.5733615 437.86563192 180.43779619 437.85444562 C183.93878418 437.84926409 187.43927064 437.85211172 190.94018555 437.87691116 C194.74051053 437.89955746 198.5395736 437.8913264 202.33990479 437.87542725 C203.44001786 437.88930933 204.54013093 437.90319142 205.67358077 437.91749418 C212.66310918 437.84549165 217.80260799 436.58757339 223.41152954 432.26742554 C227.67239095 427.55378094 228.53634405 422.98524394 228.55133724 416.78579521 C228.55428867 416.12149919 228.55724009 415.45720317 228.56028095 414.77277696 C228.56899192 412.53098077 228.5705544 410.28923606 228.57215881 408.04742432 C228.57688843 406.43020159 228.58203916 404.81298005 228.58757645 403.19575989 C228.60150203 398.73909766 228.60907164 394.2824436 228.61554945 389.82576513 C228.62191514 386.00625884 228.63198598 382.18676603 228.6421101 378.36726813 C228.67545319 365.78207859 228.6969588 353.19688086 228.71530995 340.61166161 C228.72010401 337.33529318 228.72508744 334.05892509 228.73011518 330.78255701 C228.76108483 310.44332115 228.78777447 290.10408247 228.80453396 269.76482964 C228.80848356 265.05247874 228.81248654 260.34012789 228.81655884 255.6277771 C228.81807138 253.87089564 228.81807138 253.87089564 228.81961448 252.07852162 C228.83662367 233.10223936 228.87773495 214.12608744 228.92858183 195.14986883 C228.98033897 175.67396706 229.0094737 156.19813235 229.01673084 136.72216237 C229.02139544 125.78444705 229.03617133 114.84694522 229.07647514 103.90929794 C229.1107563 94.59469125 229.12472218 85.28033656 229.112051 75.96567039 C229.1062197 71.21305483 229.11012123 66.46097234 229.14022064 61.70843697 C229.16756369 57.35559365 229.16709948 53.0036626 229.14471019 48.65079917 C229.14148513 47.07804731 229.14836825 45.50523459 229.16650742 43.93258403 C229.25190267 36.04955545 229.25304231 29.30652299 224.08708256 22.90727752 C219.8838059 18.79356015 216.07624812 17.92793679 210.27155316 17.88018161 C209.10130213 17.8932894 209.10130213 17.8932894 207.90740967 17.90666199 C207.06515489 17.90409871 206.2229001 17.90153544 205.35512245 17.89889449 C202.54055781 17.89396378 199.72653282 17.91043773 196.91201782 17.92684937 C194.89145419 17.92769579 192.87088963 17.92722019 190.85032654 17.92552185 C185.36937078 17.92466108 179.88861196 17.94230022 174.40770197 17.96324372 C168.67818354 17.98199681 162.9486606 17.98375989 157.21911621 17.98731995 C146.3713617 17.99664441 135.52369788 18.0212637 124.67598331 18.05136842 C112.32542686 18.08489986 99.97486608 18.10139529 87.62427545 18.11645472 C62.21997653 18.14781285 36.81575812 18.20058123 11.41152954 18.26742554 Z " fill="#434A53" transform="translate(186.58847045898438,28.732574462890625)"/>
<path d="M0 0 C0.06959803 9.15358757 0.12286092 18.30708365 0.15543652 27.46087837 C0.17107344 31.71164439 0.19227545 35.962229 0.22631836 40.21289062 C0.25898252 44.31721651 0.27686786 48.42136819 0.28463173 52.52581406 C0.2901626 54.08947363 0.30096312 55.65312398 0.31719017 57.21670914 C0.33905886 59.41177002 0.34196308 61.60611674 0.34057617 63.80126953 C0.35056892 65.67324509 0.35056892 65.67324509 0.36076355 67.58303833 C-0.04076753 71.38612848 -1.00066391 73.75719364 -3 77 C-8.95423092 81.74639099 -14.51643542 81.54570204 -21.91796875 81.46875 C-23.05277176 81.47579956 -24.18757477 81.48284912 -25.35676575 81.4901123 C-28.9672419 81.51210212 -32.57697657 81.50914605 -36.1875 81.5 C-40.95222405 81.48798304 -45.7158423 81.5015764 -50.48046875 81.53125 C-51.57530075 81.51993042 -52.67013275 81.50861084 -53.79814148 81.49694824 C-54.81632462 81.5037561 -55.83450775 81.51056396 -56.88354492 81.51757812 C-57.77732346 81.51439575 -58.67110199 81.51121338 -59.59196472 81.50793457 C-62.80126242 82.16373246 -63.98646847 83.46664371 -66 86 C-66.80315654 89.14481791 -66.80315654 89.14481791 -67 92 C-67.33 91.34 -67.66 90.68 -68 90 C-72.95 90 -77.9 90 -83 90 C-83.97679629 78.47380381 -79.60510246 69.4765327 -72.39453125 60.7277832 C-68.44968224 56.23392125 -64.26181756 52.00279843 -60.00927734 47.8034668 C-58.49643594 46.30897918 -56.99184885 44.8065463 -55.48828125 43.30273438 C-51.4038142 39.23373847 -47.31505043 35.20165312 -42.9296875 31.453125 C-36.87919253 26.27174906 -31.4608854 20.39569332 -25.953125 14.65039062 C-18.75959403 7.31446571 -10.85007166 -0.29324518 0 0 Z " fill="#E3E6E6" transform="translate(180,48)"/>
<path d="M0 0 C6.67490618 5.88345302 6.67490618 5.88345302 9.109375 9.53515625 C8.97238211 13.30246061 8.59227099 15.7818385 6.546875 18.97265625 C3.14058852 21.15617323 -0.00142531 21.25735231 -3.890625 20.53515625 C-6.43455779 19.07792401 -8.37720777 17.15139093 -10.453125 15.09765625 C-21.74470568 4.74882614 -34.26018935 -2.01045994 -48.890625 -6.46484375 C-49.57962891 -6.67512207 -50.26863281 -6.88540039 -50.97851562 -7.10205078 C-77.22485597 -14.75420403 -104.04522108 -10.64958331 -127.83984375 2.34130859 C-133.91166962 5.87597865 -139.28910286 10.24977809 -144.55859375 14.87890625 C-151.73639702 21.04682192 -151.73639702 21.04682192 -156.265625 21.34765625 C-159.890625 20.53515625 -159.890625 20.53515625 -162.390625 18.47265625 C-164.28538162 14.76209119 -164.55217224 12.65145017 -163.890625 8.53515625 C-161.66796875 6.1171875 -161.66796875 6.1171875 -158.890625 3.53515625 C-158.08625 2.74496094 -157.281875 1.95476562 -156.453125 1.140625 C-113.35710214 -39.52467706 -44.14094382 -37.63910209 0 0 Z " fill="#669FC9" transform="translate(333.890625,363.46484375)"/>
<path d="M0 0 C4.27491243 1.24849568 7.08433915 4.49475953 10.11328125 7.6171875 C10.71914063 8.21144531 11.325 8.80570313 11.94921875 9.41796875 C13.35461009 10.80026681 14.73670218 12.20619395 16.11328125 13.6171875 C19.5361477 12.29272169 21.50421599 10.23836663 23.91967773 7.52758789 C29.71424364 1.08565312 29.71424364 1.08565312 33.69140625 -0.24609375 C37.34590362 -0.3610531 39.52077146 0.2703525 42.67578125 2.1171875 C44.25901172 4.8706318 44.97194007 7.12388517 44.83984375 10.32421875 C43.23380057 15.39275287 38.83952069 18.99391841 35.11328125 22.6171875 C34.56285156 23.20886719 34.01242187 23.80054688 33.4453125 24.41015625 C32.11328125 25.6171875 32.11328125 25.6171875 30.11328125 25.6171875 C32.03407857 29.25555784 34.23924383 31.81310915 37.29077148 34.56225586 C43.63446123 40.3069618 43.63446123 40.3069618 44.97265625 43.96875 C45.1005926 47.38465054 44.30058248 49.3736959 42.23828125 52.0546875 C38.69823652 54.65766157 36.52261689 55.0656861 32.11328125 54.6171875 C29.55078125 52.82421875 29.55078125 52.82421875 27.11328125 50.4296875 C23.55084339 46.98713938 19.94497359 43.75271481 16.11328125 40.6171875 C15.26765625 41.54402344 14.42203125 42.47085938 13.55078125 43.42578125 C12.40591727 44.63633415 11.26002913 45.84591904 10.11328125 47.0546875 C9.56027344 47.66634766 9.00726563 48.27800781 8.4375 48.90820312 C5.44025699 52.02602488 3.21748038 53.97417334 -1.140625 54.640625 C-4.88671875 54.6171875 -4.88671875 54.6171875 -7.82421875 52.8046875 C-10.23187699 50.25111058 -10.80906273 49.28895885 -11.2109375 45.8125 C-10.79815639 41.74436805 -9.50504519 40.41244405 -6.69921875 37.4921875 C-5.92191406 36.66460937 -5.14460938 35.83703125 -4.34375 34.984375 C-1.96429922 32.69193116 0.49780201 30.63338287 3.11328125 28.6171875 C1.51397691 24.57583163 -1.37332284 21.93811598 -4.44921875 18.9921875 C-10.70944602 12.94673295 -10.70944602 12.94673295 -11.26171875 8.8046875 C-10.88671875 5.6171875 -10.88671875 5.6171875 -8.88671875 2.7421875 C-5.80999011 0.56283805 -3.79837312 -0.24321033 0 0 Z " fill="#679FC9" transform="translate(298.88671875,227.3828125)"/>
<path d="M0 0 C4.2627542 1.2472503 7.03714587 4.55717399 10.109375 7.6171875 C11.43259199 8.77468851 12.76526035 9.92152042 14.109375 11.0546875 C15.099375 11.9003125 16.089375 12.7459375 17.109375 13.6171875 C17.95242187 12.76253906 18.79546875 11.90789062 19.6640625 11.02734375 C20.77070093 9.91132703 21.87747902 8.79544878 22.984375 7.6796875 C23.53996094 7.11572266 24.09554687 6.55175781 24.66796875 5.97070312 C29.86806217 0.73928384 29.86806217 0.73928384 34.921875 0.2421875 C38.38988903 0.29272322 39.10014455 0.61064927 42.109375 2.7421875 C44.109375 5.6171875 44.109375 5.6171875 44.859375 8.4296875 C43.70557361 13.33334342 40.59630664 16.11006128 37.109375 19.6171875 C36.44164062 20.29910156 35.77390625 20.98101562 35.0859375 21.68359375 C33.44200247 23.34430363 31.7844278 24.98795681 30.109375 26.6171875 C30.934375 27.5865625 31.759375 28.5559375 32.609375 29.5546875 C33.14820313 30.19148438 33.68703125 30.82828125 34.2421875 31.484375 C35.55325523 32.98195445 36.90663862 34.44302688 38.2890625 35.875 C39.01351562 36.63554687 39.73796875 37.39609375 40.484375 38.1796875 C41.17273438 38.88222656 41.86109375 39.58476562 42.5703125 40.30859375 C44.55404445 43.28419168 44.49749773 45.10515015 44.109375 48.6171875 C42.01292406 52.54803301 40.60964623 53.45043042 36.359375 54.8671875 C32.59563487 55.11856903 30.86735105 54.04882122 28.046875 51.6171875 C26.71339729 50.30483419 25.40115585 48.97060402 24.109375 47.6171875 C22.77633809 46.30438644 21.44302272 44.99186805 20.109375 43.6796875 C19.10676787 42.66141463 18.10573687 41.64157205 17.109375 40.6171875 C13.3733923 43.74321384 9.92349162 46.80346067 6.671875 50.4296875 C4.22006344 52.9090475 2.43710758 54.16985112 -1.015625 54.8046875 C-5.456493 54.58980679 -6.88222306 53.80791683 -9.890625 50.6171875 C-11.32048516 47.75746717 -11.21330868 45.78959577 -10.890625 42.6171875 C-9.09765625 40.0546875 -9.09765625 40.0546875 -6.703125 37.6171875 C-3.26057688 34.05474964 -0.02615231 30.44887984 3.109375 26.6171875 C2.18253906 25.70195312 1.25570312 24.78671875 0.30078125 23.84375 C-0.90898539 22.6433614 -2.11861365 21.44283333 -3.328125 20.2421875 C-3.93978516 19.63890625 -4.55144531 19.035625 -5.18164062 18.4140625 C-5.76494141 17.83398438 -6.34824219 17.25390625 -6.94921875 16.65625 C-7.48861084 16.12209473 -8.02800293 15.58793945 -8.58374023 15.03759766 C-10.5103611 12.94361668 -10.88535711 11.65669667 -11.265625 8.8046875 C-10.890625 5.6171875 -10.890625 5.6171875 -8.890625 2.7421875 C-5.81232118 0.56172229 -3.79991412 -0.24285165 0 0 Z " fill="#679FC9" transform="translate(179.890625,227.3828125)"/>
</svg>
